<?xml version="1.0" standalone="no"?>
<!DOCTYPE svg PUBLIC "-//W3C//DTD SVG 20010904//EN"
 "http://www.w3.org/TR/2001/REC-SVG-20010904/DTD/svg10.dtd">
<svg version="1.0" xmlns="http://www.w3.org/2000/svg"
 width="800.000000pt" height="150.000000pt" viewBox="0 0 800.000000 150.000000"
 preserveAspectRatio="xMidYMid meet">

<g transform="translate(0.000000,150.000000) scale(0.100000,-0.100000)"
fill="currentColor" stroke="none">
<path d="M409 1083 c-3 -39 1 -235 5 -242 3 -4 16 -8 28 -7 22 1 23 6 28 96
l5 95 121 3 c119 3 122 2 153 -24 42 -35 61 -74 61 -124 0 -55 -22 -103 -59
-129 -28 -20 -44 -22 -188 -24 -119 -2 -158 -5 -157 -14 1 -7 2 -76 3 -153 l1
-140 30 0 29 0 3 123 3 122 135 5 c153 6 185 17 224 78 62 94 55 202 -17 277
-26 27 -57 47 -82 54 -45 12 -325 15 -326 4z"/>
<path d="M1052 758 l3 -333 29 0 29 0 -1 330 0 330 -31 3 -31 3 2 -333z"/>
<path d="M1519 1083 c0 -5 0 -67 1 -139 1 -100 -2 -133 -13 -142 -8 -7 -67
-12 -153 -14 l-139 -3 0 -24 0 -24 142 2 c135 2 142 1 153 -19 7 -14 11 -71 9
-158 l-2 -137 31 -3 32 -3 0 335 0 336 -30 0 c-16 0 -30 -3 -31 -7z"/>
<path d="M1979 1075 c-88 -32 -140 -83 -185 -178 -33 -73 -32 -89 8 -85 27 3
33 9 46 47 10 29 35 65 71 102 46 47 65 59 106 67 122 26 236 -45 280 -175 11
-32 18 -38 45 -41 l32 -3 -6 38 c-17 89 -103 189 -194 223 -61 23 -149 25
-203 5z"/>
<path d="M2485 1080 c-3 -6 -3 -19 0 -30 6 -20 14 -20 273 -18 l267 3 3 28 3
27 -270 0 c-171 0 -272 -4 -276 -10z"/>
<path d="M3336 1075 c-43 -16 -101 -56 -129 -89 -24 -28 -77 -136 -77 -158 0
-13 8 -18 30 -18 20 0 32 6 36 18 19 59 43 98 85 137 56 53 86 66 150 67 109
3 206 -79 243 -204 4 -12 15 -18 36 -18 38 0 39 16 5 88 -36 77 -67 113 -130
151 -49 30 -67 35 -133 38 -51 2 -90 -2 -116 -12z"/>
<path d="M4489 1077 c-90 -34 -129 -86 -129 -174 0 -85 40 -128 148 -158 160
-45 195 -58 225 -84 26 -24 32 -36 32 -71 0 -35 -6 -47 -37 -75 -66 -61 -201
-56 -315 11 -51 29 -60 30 -68 3 -10 -31 19 -55 101 -84 51 -18 90 -25 150
-25 163 0 236 56 238 182 1 98 -45 136 -226 182 -124 32 -156 49 -174 91 -53
128 126 209 284 129 55 -28 68 -29 76 -8 11 28 7 33 -46 60 -64 33 -199 43
-259 21z"/>
<path d="M5020 1085 c0 -3 -1 -152 -1 -332 l0 -328 28 0 28 0 3 333 2 332 -30
0 c-16 0 -30 -2 -30 -5z"/>
<path d="M5478 943 l-3 -148 -148 -3 -148 -3 3 -25 3 -26 136 1 c104 2 138 -1
147 -12 7 -8 13 -69 14 -158 l3 -144 30 0 30 0 0 330 0 330 -32 3 -32 3 -3
-148z"/>
<path d="M6550 1085 c0 -3 -1 -152 -1 -332 l0 -328 28 0 28 0 5 120 5 120 38
3 c33 3 36 5 27 23 -6 10 -24 26 -41 34 l-30 16 3 142 3 142 124 3 c120 3 124
2 158 -24 63 -48 80 -131 43 -204 -24 -47 -64 -70 -120 -70 -22 0 -40 -4 -40
-9 0 -4 19 -37 43 -72 23 -35 66 -101 94 -146 46 -72 56 -83 81 -83 16 0 31 3
34 6 4 3 -27 58 -68 122 -41 64 -73 121 -71 126 2 6 14 16 26 22 98 50 135
177 81 284 -46 90 -101 110 -301 110 -82 0 -149 -2 -149 -5z"/>
<path d="M7220 995 l0 -95 35 0 34 0 3 63 3 62 180 5 180 5 0 25 0 25 -217 3
-218 2 0 -95z"/>
<path d="M6122 1018 c-15 -35 -54 -128 -88 -208 -38 -92 -66 -145 -75 -145 -8
0 -27 24 -42 53 -16 28 -32 52 -37 52 -5 0 -15 -12 -23 -27 -7 -16 -46 -90
-86 -166 -40 -75 -70 -144 -67 -152 5 -13 53 -15 335 -15 208 0 332 4 336 10
8 13 -204 660 -216 660 -5 0 -22 -28 -37 -62z m72 -110 c23 -71 25 -83 12 -96
-12 -13 -17 -12 -37 2 -21 14 -24 14 -41 0 -21 -20 -48 -12 -48 13 0 18 46
133 63 161 14 21 24 5 51 -80z m-101 -130 c3 -10 10 -10 31 2 22 11 31 12 47
1 16 -9 24 -10 35 0 9 7 18 8 24 3 15 -15 112 -323 105 -334 -4 -6 -112 -10
-291 -10 -246 0 -285 2 -291 15 -8 22 108 245 127 245 9 0 27 -24 43 -55 15
-30 32 -55 37 -55 6 0 22 26 36 58 14 31 34 76 44 100 18 41 44 55 53 30z"/>
<path d="M2732 922 c-9 -7 -12 -64 -10 -253 l3 -244 33 -3 32 -3 -2 253 c-3
244 -4 253 -23 256 -11 1 -26 -2 -33 -6z"/>
<path d="M7227 784 c-4 -4 -7 -49 -7 -101 l0 -93 35 0 34 0 3 73 3 72 158 3
c157 2 158 3 155 25 -3 22 -5 22 -189 25 -102 1 -188 -1 -192 -4z"/>
<path d="M1770 693 c1 -31 46 -130 78 -170 42 -54 129 -96 208 -101 128 -8
231 53 289 172 47 98 48 110 8 114 -31 3 -33 1 -44 -43 -15 -61 -76 -137 -131
-164 -54 -26 -145 -28 -191 -5 -69 35 -133 113 -147 179 -5 25 -11 31 -38 33
-25 3 -32 0 -32 -15z"/>
<path d="M3130 688 c0 -30 50 -135 83 -173 14 -17 52 -44 84 -60 50 -26 69
-30 138 -30 63 0 90 5 127 23 87 43 160 138 175 226 5 35 5 36 -25 36 -28 0
-32 -4 -41 -38 -34 -125 -156 -213 -268 -192 -85 15 -165 86 -194 172 -16 47
-21 53 -48 56 -27 3 -31 0 -31 -20z"/>
<path d="M3914 701 c-2 -2 -4 -15 -4 -28 0 -23 0 -23 136 -23 l135 0 -3 26 -3
26 -128 1 c-71 1 -131 0 -133 -2z"/>
<path d="M7222 453 l3 -28 220 0 220 0 0 25 0 25 -223 3 -223 2 3 -27z"/>
</g>
</svg>
